<svg width="46" height="46" viewBox="0 0 46 46" fill="none" xmlns="http://www.w3.org/2000/svg">
<rect width="46" height="46" rx="8" fill="#D9D9D9"/>
<path d="M36.1137 45.8763C36.1204 45.7197 36.1237 45.5631 36.1237 45.4065C36.1237 37.8539 29.9964 31.7338 22.4349 31.7338C14.8733 31.7338 8.74606 37.8539 8.74606 45.4065C8.74606 45.5631 8.7494 45.7197 8.75607 45.8763H36.1137V45.8763Z" fill="#FF5961"/>
<path d="M22.5812 36.0784C16.1406 36.0784 10.8719 30.8885 10.8719 24.5442V20.5538C10.8719 14.2095 16.1406 9.01959 22.5812 9.01959C29.0218 9.01959 34.2906 14.2095 34.2906 20.5538V24.5442C34.2875 30.8885 29.0188 36.0784 22.5812 36.0784Z" fill="white"/>
</svg>
