<svg width="67" height="56" viewBox="0 0 67 56" fill="none" xmlns="http://www.w3.org/2000/svg">
<rect width="67" height="56" rx="10" fill="#33BBF7"/>
<rect x="53" width="14" height="56" fill="#33BBF7"/>
<path d="M34.9825 10.5C25.3225 10.5 17.5 18.34 17.5 28C17.5 37.66 25.3225 45.5 34.9825 45.5C44.66 45.5 52.5 37.66 52.5 28C52.5 18.34 44.66 10.5 34.9825 10.5ZM47.11 21H41.9475C41.3875 18.8125 40.5825 16.7125 39.5325 14.77C42.7525 15.8725 45.43 18.1125 47.11 21ZM35 14.07C36.4525 16.17 37.59 18.4975 38.3425 21H31.6575C32.41 18.4975 33.5475 16.17 35 14.07ZM21.455 31.5C21.175 30.38 21 29.2075 21 28C21 26.7925 21.175 25.62 21.455 24.5H27.37C27.23 25.655 27.125 26.81 27.125 28C27.125 29.19 27.23 30.345 27.37 31.5H21.455ZM22.89 35H28.0525C28.6125 37.1875 29.4175 39.2875 30.4675 41.23C27.2475 40.1275 24.57 37.905 22.89 35V35ZM28.0525 21H22.89C24.57 18.095 27.2475 15.8725 30.4675 14.77C29.4175 16.7125 28.6125 18.8125 28.0525 21V21ZM35 41.93C33.5475 39.83 32.41 37.5025 31.6575 35H38.3425C37.59 37.5025 36.4525 39.83 35 41.93ZM39.095 31.5H30.905C30.7475 30.345 30.625 29.19 30.625 28C30.625 26.81 30.7475 25.6375 30.905 24.5H39.095C39.2525 25.6375 39.375 26.81 39.375 28C39.375 29.19 39.2525 30.345 39.095 31.5ZM39.5325 41.23C40.5825 39.2875 41.3875 37.1875 41.9475 35H47.11C45.43 37.8875 42.7525 40.1275 39.5325 41.23V41.23ZM42.63 31.5C42.77 30.345 42.875 29.19 42.875 28C42.875 26.81 42.77 25.655 42.63 24.5H48.545C48.825 25.62 49 26.7925 49 28C49 29.2075 48.825 30.38 48.545 31.5H42.63Z" fill="white"/>
</svg>
