<svg width="160" height="102" viewBox="0 0 160 102" fill="none" xmlns="http://www.w3.org/2000/svg">
<rect width="160" height="102" fill="white"/>
<rect width="160" height="102" fill="#F3F3F4"/>
<g clip-path="url(#clip0)">
<path d="M96.125 18.75C89.89 18.75 83.9058 21.6525 80 26.2392C76.0941 21.6525 70.11 18.75 63.875 18.75C52.8383 18.75 44.1666 27.4217 44.1666 38.4583C44.1666 52.0033 56.35 63.04 74.8041 79.81L80 84.5042L85.1958 79.7742C103.65 63.04 115.833 52.0033 115.833 38.4583C115.833 27.4217 107.162 18.75 96.125 18.75ZM80.3583 74.4708L80 74.8292L79.6416 74.4708C62.585 59.0267 51.3333 48.8142 51.3333 38.4583C51.3333 31.2917 56.7083 25.9167 63.875 25.9167C69.3933 25.9167 74.7683 29.4642 76.6675 34.3733H83.3683C85.2316 29.4642 90.6066 25.9167 96.125 25.9167C103.292 25.9167 108.667 31.2917 108.667 38.4583C108.667 48.8142 97.415 59.0267 80.3583 74.4708Z" fill="#6BA46A"/>
<rect x="19" y="37" width="61" height="48" fill="#F3F3F4"/>
<path d="M90 67.8V62.4L67.6842 48.9V34.05C67.6842 31.809 65.8153 30 63.5 30C61.1847 30 59.3158 31.809 59.3158 34.05V48.9L37 62.4V67.8L59.3158 61.05V75.9L53.7368 79.95V84L63.5 81.3L73.2632 84V79.95L67.6842 75.9V61.05L90 67.8Z" fill="#6BA46A"/>
</g>
<defs>
<clipPath id="clip0">
<rect width="86" height="86" fill="white" transform="translate(37 8)"/>
</clipPath>
</defs>
</svg>
