<svg width="16" height="16" viewBox="0 0 16 16" fill="none" xmlns="http://www.w3.org/2000/svg">
<path d="M15.4688 5.15625C15.8125 5.46875 16 5.84375 16 6.3125V14.5C16 14.9375 15.8438 15.2812 15.5625 15.5625C15.25 15.875 14.9062 16 14.5 16H1.5C1.0625 16 0.71875 15.875 0.4375 15.5625C0.125 15.2812 0 14.9375 0 14.5V6.28125C0 5.84375 0.1875 5.4375 0.5625 5.125C1.375 4.4375 2.78125 3.3125 4.78125 1.75L5.09375 1.46875C5.625 1.03125 6.0625 0.71875 6.375 0.5C6.9375 0.1875 7.5 0 8 0C8.5 0 9.03125 0.1875 9.625 0.5C9.9375 0.71875 10.375 1.03125 10.9062 1.46875L11.2188 1.75C13.2812 3.40625 14.7188 4.53125 15.4688 5.15625ZM14.5 14.3125V6.375C14.5 6.34375 14.4688 6.3125 14.4375 6.25C12.75 4.875 11.3438 3.78125 10.2812 2.90625L9.96875 2.65625C9.53125 2.3125 9.21875 2.0625 9 1.90625C8.59375 1.65625 8.25 1.5 8 1.5C7.71875 1.5 7.375 1.65625 7 1.90625C6.75 2.0625 6.4375 2.3125 6.03125 2.65625L1.5625 6.25C1.5 6.28125 1.5 6.3125 1.5 6.375V14.3125C1.5 14.375 1.5 14.4062 1.5625 14.4375C1.59375 14.5 1.625 14.5 1.6875 14.5H14.3125C14.3438 14.5 14.375 14.5 14.4375 14.4375C14.4688 14.4062 14.5 14.375 14.5 14.3125ZM13.5 8.4375L13.0312 7.875C12.9688 7.8125 12.875 7.75 12.7812 7.75C12.6562 7.75 12.5625 7.75 12.5 7.8125L9.96875 9.84375C9.53125 10.2188 9.21875 10.4688 9 10.5938C8.59375 10.875 8.25 11 8 11C7.71875 11 7.375 10.875 7 10.5938C6.75 10.4688 6.4375 10.2188 6.03125 9.84375L3.5 7.8125C3.40625 7.75 3.3125 7.75 3.21875 7.75C3.09375 7.75 3.03125 7.8125 2.96875 7.875L2.5 8.4375C2.4375 8.53125 2.40625 8.625 2.40625 8.71875C2.40625 8.84375 2.46875 8.90625 2.5625 8.96875L5.09375 11.0312C5.59375 11.4688 6.03125 11.8125 6.375 12C6.9375 12.3438 7.5 12.5 8 12.5C8.5 12.5 9.03125 12.3438 9.625 12C9.9375 11.8125 10.3438 11.4688 10.9062 11.0312L13.4375 8.96875C13.5 8.90625 13.5625 8.84375 13.5625 8.71875C13.5625 8.625 13.5625 8.53125 13.5 8.4375Z" fill="#D9D9D9"/>
</svg>
